<?xml version="1.0" encoding="utf-8"?>
<!-- Generator: Adobe Illustrator 18.0.0, SVG Export Plug-In . SVG Version: 6.00 Build 0)  -->
<!DOCTYPE svg PUBLIC "-//W3C//DTD SVG 1.1//EN" "http://www.w3.org/Graphics/SVG/1.1/DTD/svg11.dtd">
<svg version="1.1" id="Layer_1" xmlns="http://www.w3.org/2000/svg" xmlns:xlink="http://www.w3.org/1999/xlink" x="0px" y="0px"
	 viewBox="0 0 60 60" enable-background="new 0 0 60 60" xml:space="preserve">
<g id="Layer_1_1_">
</g>
<g id="Layer_2">
	<rect fill="#59C0C7" width="60" height="60"/>
	<path fill="#FFFFFF" d="M29.9,0.1C13.5,0.1,0,13.6,0,30s13.5,30,29.9,30s29.9-13.5,29.9-30C59.8,13.4,46.4,0.1,29.9,0.1z
		 M29.9,51.5c-1.6,0-2.8-1.3-2.8-2.8c0-1.6,1.3-2.8,2.8-2.8s2.8,1.3,2.8,2.8C32.8,50.3,31.5,51.5,29.9,51.5z M31.9,40
		c0,1.8-0.3,3.4-2,3.4c-1.8,0-2-1.6-2-3.4l-1.5-26.9c0-2.5,1.9-3.8,3.4-3.8c1.8,0,3.4,1.2,3.4,3.8L31.9,40z"/>
</g>
<g id="Layer_3">
</g>
</svg>
