<?xml version="1.0" encoding="utf-8"?>
<!-- Generator: Adobe Illustrator 18.0.0, SVG Export Plug-In . SVG Version: 6.00 Build 0)  -->
<!DOCTYPE svg PUBLIC "-//W3C//DTD SVG 1.1//EN" "http://www.w3.org/Graphics/SVG/1.1/DTD/svg11.dtd">
<svg version="1.1" xmlns="http://www.w3.org/2000/svg" xmlns:xlink="http://www.w3.org/1999/xlink" x="0px" y="0px"
	 viewBox="0 0 200 200" enable-background="new 0 0 200 200" xml:space="preserve">
<g id="Layer_2_1_">
	<rect fill="#59C0C7" width="200" height="200"/>
</g>
<g id="Layer_3">
	<g>
		<path opacity="0.38" fill="#151741" d="M24.2,141.4c1,6.6,6.2,10.5,13.6,11.4l7.2,0.1l4.5,9.3l6-0.2l4.2-9.1l4.8-0.9l0.6-27.8
			c1.1-1.8,1.6-4,1.3-6.3c-0.8-5.3-4.2-10.3-9.5-9.6c-0.8-5.3-5.9-7.9-12.5-6.8c-5.3,0.8-9,5.7-8.2,11c-5.3,0.8-9,5.7-8.2,11
			c0.3,2.3,0.8,3.3,1.9,4.4C24.9,131.2,23.5,136.6,24.2,141.4z"/>
		<path fill="#F4D6BE" d="M28.6,138.3c0,6.4,5.2,11.6,11.6,11.6h8l1.3,12.4h5.9l1.3-12.4h6.7c6.4,0,2.8-37.1-2.3-37.1
			c0-5.1-4.1-9.3-9.3-9.3c-5.1,0-9.3,4.1-9.3,9.3c-5.1,0-9.3,4.2-9.3,9.3c0,2.2,0.8,4.2,2.1,5.8C31.4,129.7,28.6,133.7,28.6,138.3z"
			/>
		<path opacity="0.38" fill="#151741" d="M172.5,114.8c1.6-3.4,1.8-5.5,1.8-8.8c0-8.7-5.3-15.2-13-16.3c1.1-7.6-5.2-13.7-12.8-14.8
			c-7.6-1.1-14.7,4-15.8,11.6c-1.5-0.2-9.3,63.6-9.3,63.6l6.6,0.5l4.5,11.5l8.7,0.3l4.3-11.8l10.9-0.4c12.3-1.2,18.9-8.1,20.3-17.6
			C179.7,125.6,178,118.4,172.5,114.8z"/>
		<path fill="#F4D6BE" d="M163.6,112.8c1.8-2.3,3-5.1,3-8.3c0-7.4-6-13.4-13.4-13.4c0-7.4-6-13.4-13.4-13.4c-1.7,0-5.8,0.9-7.3,1.5
			c-4.9,2-6.5,65.2-6.5,65.2l6.8,0.1l1.8,17.8h8.5l1.8-17.8h11.5c9.2,0,16.7-7.5,16.7-16.7C173.3,121.1,169.3,115.4,163.6,112.8z"/>
		<path opacity="0.38" fill="#151741" d="M121.9,28l-45.4-2.6C55,24.9,58.1,51.3,57.9,56.8l2,38.8l1.3,30.9l1.4,20.4
			c-0.2,7,4.8,16.9,11.7,17.1l6.8,0.1c2.1,0.1,5.6-2.1,6.4-4.2c0.1-0.3,0.4-1.2,0.5-2.3c0,0,0.2-2.6,0.2-3l0.3-5.1l0.2-5l0.4-4.3
			c0-1.4,0.7-2.6,2.2-2.5l11.2,0.3c1.4,0,2.5,1.2,2.5,2.6l-0.1,4.4l-0.3,10.7c-0.1,2.8,2.1,5.1,4.9,5.2l5.5,3.3
			c7,0.2,14-7.2,15-17.4l2.5-24.6l3.3-32.1l3.2-25.2C141.3,45.9,144.3,30.8,121.9,28z M83.2,123.2c0,1.8-2.6,3.2-4.6,3.2l-3.2-0.1
			c-2.1-0.1-3.7-1.6-3.7-3.4l0.2-8.8c0-1.8,1.8-3.3,3.9-3.2l3.2,0.1c2.1,0.1,4.5,1.6,4.5,3.4L83.2,123.2z M83.8,100.3
			c0,1.8-2.6,3.2-4.6,3.2l-3.2-0.1c-2.1-0.1-3.7-1.6-3.7-3.4l0.2-8.8c0-1.8,1.8-3.3,3.9-3.2l3.2,0.1c2.1,0.1,4.5,1.6,4.5,3.4
			L83.8,100.3z M84.3,76.4c0,1.8-2.6,3.2-4.6,3.2l-3.2-0.1c-2.1-0.1-3.7-1.6-3.7-3.4l0.2-8.8c0-1.8,1.8-3.3,3.9-3.2l3.2,0.1
			c2.1,0.1,4.5,1.6,4.5,3.4L84.3,76.4z M84.9,53.2c0,1.8-2.6,3.2-4.6,3.2l-3.2-0.1c-2.1-0.1-3.7-1.6-3.7-3.4l0.2-8.8
			c0-1.8,1.8-3.3,3.9-3.2l3.2,0.1c2.1,0.1,4.5,1.6,4.5,3.4L84.9,53.2z M102.5,123.7c0,1.8-2.6,3.2-4.6,3.2l-3.2-0.1
			c-2.1-0.1-3.7-1.6-3.7-3.4l0.2-8.8c0-1.8,1.8-3.3,3.9-3.2l3.2,0.1c2.1,0,4.5,1.6,4.5,3.4L102.5,123.7z M103.1,100.7
			c0,1.8-2.6,3.2-4.6,3.2l-3.2-0.1c-2.1-0.1-3.7-1.6-3.7-3.4l0.2-8.8c0-1.8,1.8-3.3,3.9-3.2l3.2,0.1c2.1,0.1,4.5,1.6,4.5,3.4
			L103.1,100.7z M103.7,76.9c0,1.8-2.6,3.2-4.6,3.2L95.9,80c-2.1-0.1-3.7-1.6-3.7-3.4l0.2-8.8c0-1.8,1.8-3.3,3.9-3.2l3.2,0.1
			c2.1,0.1,4.5,1.6,4.5,3.4L103.7,76.9z M104.2,53.7c0,1.8-2.6,3.2-4.6,3.2l-3.2-0.1c-2.1-0.1-3.7-1.6-3.7-3.4l0.2-8.8
			c0-1.8,1.8-3.3,3.9-3.2l3.2,0.1c2.1,0.1,4.5,1.6,4.5,3.4L104.2,53.7z M121.9,124.2c0,1.8-2.6,3.2-4.6,3.2l-3.2-0.1
			c-2.1-0.1-3.7-1.6-3.7-3.4l0.2-8.8c0-1.8,1.8-3.3,3.9-3.2l3.2,0.1c2.1,0.1,4.5,1.6,4.5,3.4L121.9,124.2z M122.4,101.2
			c0,1.8-2.6,3.2-4.6,3.2l-3.2-0.1c-2.1-0.1-3.7-1.6-3.7-3.4l0.2-8.8c0-1.8,1.8-3.3,3.9-3.2l3.2,0.1c2.1,0.1,4.5,1.6,4.5,3.4
			L122.4,101.2z M123,77.4c0,1.8-2.6,3.2-4.6,3.2l-3.2-0.1c-2.1-0.1-3.7-1.6-3.7-3.4l0.2-8.8c0-1.8,1.8-3.3,3.9-3.2l3.2,0.1
			c2.1,0.1,4.5,1.6,4.5,3.4L123,77.4z M123.6,54.2c0,1.8-2.6,3.2-4.6,3.2l-3.2-0.1c-2.1,0-3.7-1.6-3.7-3.4l0.2-8.8
			c0-1.8,1.8-3.3,3.9-3.2l3.2,0.1c2.1,0,4.5,1.6,4.5,3.4L123.6,54.2z"/>
		<path fill="#FFFFFF" d="M116.7,31.1l-45.5-1.5c-21.5,0-17.8,26.3-17.8,31.9l3,38.7l2,30.8l1.9,20.3c0,7,6.3,12.7,13.3,12.7H81
			c2.4,0,4.5-1.7,4.9-4l0.1-0.6c0.1-0.3,0.1-0.7,0.1-1V154v-5.7v-4.4c0-1.4,1.1-2.6,2.6-2.6h11.2c1.4,0,2.6,1.1,2.6,2.6v4.4l0,10.7
			c0,2.8,2.3,5,5,5h7.5c7,0,12-6.8,12.6-14.6l1.9-24.7l2.5-32.1l2.5-25.3C136.5,48.6,139.1,33.3,116.7,31.1z M80.2,127.2
			c0,1.8-2.5,3.3-4.6,3.3h-3.2c-2.1,0-3.8-1.5-3.8-3.3v-8.8c0-1.8,1.7-3.3,3.8-3.3h3.2c2.1,0,4.6,1.5,4.6,3.3V127.2z M80.2,104.3
			c0,1.8-2.5,3.3-4.6,3.3h-3.2c-2.1,0-3.8-1.5-3.8-3.3v-8.8c0-1.8,1.7-3.3,3.8-3.3h3.2c2.1,0,4.6,1.5,4.6,3.3V104.3z M80.2,80.4
			c0,1.8-2.5,3.3-4.6,3.3h-3.2c-2.1,0-3.8-1.5-3.8-3.3v-8.8c0-1.8,1.7-3.3,3.8-3.3h3.2c2.1,0,4.6,1.5,4.6,3.3V80.4z M80.2,57.2
			c0,1.8-2.5,3.3-4.6,3.3h-3.2c-2.1,0-3.8-1.5-3.8-3.3v-8.8c0-1.8,1.7-3.3,3.8-3.3h3.2c2.1,0,4.6,1.5,4.6,3.3V57.2z M99.6,127.2
			c0,1.8-2.5,3.3-4.6,3.3h-3.2c-2.1,0-3.8-1.5-3.8-3.3v-8.8c0-1.8,1.7-3.3,3.8-3.3H95c2.1,0,4.6,1.5,4.6,3.3V127.2z M99.6,104.3
			c0,1.8-2.5,3.3-4.6,3.3h-3.2c-2.1,0-3.8-1.5-3.8-3.3v-8.8c0-1.8,1.7-3.3,3.8-3.3H95c2.1,0,4.6,1.5,4.6,3.3V104.3z M99.6,80.4
			c0,1.8-2.5,3.3-4.6,3.3h-3.2c-2.1,0-3.8-1.5-3.8-3.3v-8.8c0-1.8,1.7-3.3,3.8-3.3H95c2.1,0,4.6,1.5,4.6,3.3V80.4z M99.6,57.2
			c0,1.8-2.5,3.3-4.6,3.3h-3.2c-2.1,0-3.8-1.5-3.8-3.3v-8.8c0-1.8,1.7-3.3,3.8-3.3H95c2.1,0,4.6,1.5,4.6,3.3V57.2z M118.9,127.2
			c0,1.8-2.5,3.3-4.6,3.3h-3.2c-2.1,0-3.8-1.5-3.8-3.3v-8.8c0-1.8,1.7-3.3,3.8-3.3h3.2c2.1,0,4.6,1.5,4.6,3.3V127.2z M118.9,104.3
			c0,1.8-2.5,3.3-4.6,3.3h-3.2c-2.1,0-3.8-1.5-3.8-3.3v-8.8c0-1.8,1.7-3.3,3.8-3.3h3.2c2.1,0,4.6,1.5,4.6,3.3V104.3z M118.9,80.4
			c0,1.8-2.5,3.3-4.6,3.3h-3.2c-2.1,0-3.8-1.5-3.8-3.3v-8.8c0-1.8,1.7-3.3,3.8-3.3h3.2c2.1,0,4.6,1.5,4.6,3.3V80.4z M118.9,57.2
			c0,1.8-2.5,3.3-4.6,3.3h-3.2c-2.1,0-3.8-1.5-3.8-3.3v-8.8c0-1.8,1.7-3.3,3.8-3.3h3.2c2.1,0,4.6,1.5,4.6,3.3V57.2z"/>
	</g>
</g>
</svg>
