<?xml version="1.0" encoding="utf-8"?>
<!-- Generator: Adobe Illustrator 18.0.0, SVG Export Plug-In . SVG Version: 6.00 Build 0)  -->
<!DOCTYPE svg PUBLIC "-//W3C//DTD SVG 1.1//EN" "http://www.w3.org/Graphics/SVG/1.1/DTD/svg11.dtd">
<svg version="1.1" id="Layer_1" xmlns="http://www.w3.org/2000/svg" xmlns:xlink="http://www.w3.org/1999/xlink" x="0px" y="0px"
	 viewBox="0 0 200 200" enable-background="new 0 0 200 200" xml:space="preserve">
<g id="Layer_1_1_">
</g>
<g id="Layer_2">
	<rect fill="#59C0C7" width="200" height="200"/>
	<path fill="#FFFFFF" d="M100.1,0.2C45.3,0.2,0.8,45,0.8,100.1S45.3,200,100.1,200s99.4-44.7,99.4-99.9
		C199.5,45,155.3,0.2,100.1,0.2z M149.6,78.5l-63.1,57.8c-3.8,3.7-9.8,3.4-14-0.4l-21.2-24.2c-1.9-1.9-2.6-4.1-2.3-7.1
		c0-2.2,1.1-6.7,3.4-8.2c3.8-3.7,9.8-2.2,14,1.5l15.1,16.8l52.9-49.6c3.8-3.7,11-5.2,14.4-1.5C152.3,68.1,153.4,75.2,149.6,78.5z"/>
</g>
<g id="Layer_3">
</g>
</svg>
