<?xml version="1.0" encoding="utf-8"?>
<!-- Generator: Adobe Illustrator 18.0.0, SVG Export Plug-In . SVG Version: 6.00 Build 0)  -->
<!DOCTYPE svg PUBLIC "-//W3C//DTD SVG 1.1//EN" "http://www.w3.org/Graphics/SVG/1.1/DTD/svg11.dtd">
<svg version="1.1" id="Layer_1" xmlns="http://www.w3.org/2000/svg" xmlns:xlink="http://www.w3.org/1999/xlink" x="0px" y="0px"
	 viewBox="0 0 60 60" enable-background="new 0 0 60 60" xml:space="preserve">
<g id="Layer_1_1_">
</g>
<g id="Layer_2">
	<rect x="0" y="0.1" fill="#59C0C7" width="60" height="60"/>
	<g>
		<path fill="#FFFFFF" d="M30.1,0C13.5,0,0,13.5,0,30s13.5,30,30.1,30c0.7,0,1.2,0,2.1-0.1C32,59.4,32,58.2,32,57.6
			c0.3-1.3,1-2.3,1.9-3.2c-4.8-1.2-9.2-5.8-12.2-11.2c-0.7,0.5-1.4,0.8-2.2,1.3c-0.3,0.1-1.5,1.7-1.8,2.4c0,0.3,0,0.4,0.1,0.5
			c0.4,0.5,0.8,0.9,1.4,1.5c1.1,0.9,2.7,2.3,1.2,4.4c-0.4,0.5-1.8,0.4-2.1,0.4c-0.1,0-0.4,0-0.6-0.1c-0.6-0.3-0.7-0.9-0.3-1.6
			c0.3-0.4,0.3-0.5-0.8-1.6c-0.6-0.5-1.2-1.2-1.9-2c-0.4-0.7-0.6-1.6-0.4-2.3c0.1-0.5,0.4-1.2,0.8-1.6C10,43.1,5.1,33.9,5.1,28.3
			c0.1-6.6,5.5-11.9,12.1-11.9c1.4,0,2.9,0.3,4.3,0.8c3.3-4.2,8.5-6.8,14.3-6.8c5.6,0,10.6,2.4,14.3,6.7c1.2,1.6,2.6,3.1,3.6,6.8
			c0.6,2.1,0.6,4.3,0.4,6.8c-0.4,5.8-2.3,9.6-4.1,12.3c-2.7,4.7-6.7,9.5-11.3,10.9c-0.6,0.1-2.3,2.4-2.7,3.9c0,0.3,0,0.8,0.1,1.3
			c13.8-2.7,24-14.9,24-29.4C60.1,13.4,46.8,0,30.1,0z"/>
		<path fill="#FFFFFF" d="M46.9,40c1.4-2.8,2.5-5.8,2.9-8.3c0.1-0.8,0.1-1.7,0.1-2.4c0-3.1-1-5.9-2.7-8.4c-2.7-3.6-6.9-5.8-11.4-5.8
			c-7.7,0-14.3,6.3-14.3,14.2c0,7.6,7.2,20.7,14.6,20.7C39.4,50,43.7,46,46.9,40z M32.6,19.9c-3.3,3.3-5.2,7.9-5.2,12.6
			c0,0.8-0.6,1.5-1.4,1.5s-1.4-0.7-1.4-1.5c0-5.5,2.2-10.7,6.1-14.6c0.6-0.5,1.4-0.5,2.1,0c0.3,0.3,0.4,0.7,0.4,0.9
			C33,19.4,32.9,19.7,32.6,19.9z"/>
		<path fill="#FFFFFF" d="M16.9,20.5c-4.4,0-8.2,3.7-8.2,8.2c0,4.6,4.4,12.2,8.1,12.2c1,0,2.1-0.4,3-1.3c-1.9-3.7-2.9-7.5-2.9-10.6
			c0-2.8,0.8-5.8,2.3-8.2C18.6,20.5,17.8,20.5,16.9,20.5z M15.4,24.5c-1.5,1.6-2.5,3.6-2.5,5.9c0,0.5-0.4,1.2-1.1,1.2
			c-0.6,0-1.1-0.5-1.1-1.2c0-2.7,1.1-5.5,3-7.5c0.4-0.4,1.1-0.4,1.5,0C16,23.4,16,24.1,15.4,24.5z"/>
	</g>
</g>
<g id="Layer_3">
</g>
</svg>
