<?xml version="1.0" encoding="utf-8"?>
<!-- Generator: Adobe Illustrator 18.0.0, SVG Export Plug-In . SVG Version: 6.00 Build 0)  -->
<!DOCTYPE svg PUBLIC "-//W3C//DTD SVG 1.1//EN" "http://www.w3.org/Graphics/SVG/1.1/DTD/svg11.dtd">
<svg version="1.1" xmlns="http://www.w3.org/2000/svg" xmlns:xlink="http://www.w3.org/1999/xlink" x="0px" y="0px"
	 viewBox="0 0 300 300" enable-background="new 0 0 300 300" xml:space="preserve">
<g id="Layer_1">
</g>
<g id="Layer_2">
	<rect fill="#59C0C7" stroke="#000000" stroke-miterlimit="10" width="300" height="300"/>
	<g>
		<path fill="#FFFFFF" d="M149.6,128.5c-11.6,0-21.1,9.4-21.1,21.1c0,11.6,9.4,21.1,21.1,21.1c11.6,0,21.1-9.4,21.1-21.1
			C170.7,138,161.2,128.5,149.6,128.5z M161.8,156.5c-0.3,0.8-0.8,1.5-1.7,2.4l-0.4,0.4c-0.7,0.7-1.5,1.8-2.8,2.5
			c-1.3,0.7-3.2,0.8-5.4-0.4c-2.8-1.5-5.5-3.4-7.9-5.8c-2.4-2.4-4.3-5-5.8-7.9h0c-0.8-1.5-1.1-2.8-0.9-4c0.2-1.1,0.8-2,1.4-2.7
			c0,0,0.1-0.1,0.1-0.1c0,0,0,0,0,0c0.5-0.5,1-1,1.4-1.4l0.4-0.4c0.8-0.8,1.6-1.4,2.4-1.7c0.4-0.1,0.8-0.2,1.2-0.1
			c0.4,0.1,0.8,0.2,1.1,0.4c1.3,0.9,2.2,2.5,3.7,4.5c0.5,0.7,0.8,1.5,0.7,2.2c-0.1,0.7-0.6,1.2-1,1.6l-1,1c-0.1,0.2-0.2,0.3-0.2,0.5
			c0,0.2-0.1,0.4,0.3,0.8c0,0,0,0,0,0c0.5,0.6,1,1.1,1.5,1.7c0.5,0.5,1.1,1.1,1.7,1.5h0c0.4,0.3,0.6,0.3,0.8,0.3
			c0.2,0,0.4-0.1,0.5-0.2l1.1-1.1c0.4-0.4,0.9-0.9,1.6-1c0.7-0.1,1.5,0.1,2.2,0.7c2,1.5,3.6,2.4,4.5,3.7
			C161.8,154.8,162,155.7,161.8,156.5z"/>
		<path fill="#FFFFFF" d="M155.7,152c-0.5-0.3-0.6-0.3-0.6-0.3c-0.1,0-0.3,0.1-0.6,0.5l-1.2,1.2c-0.1,0.1-0.1,0.1-0.2,0.2
			c-0.1,0-0.6,0.7-1.3,0.8c-0.7,0.1-1.6,0-2.4-0.7l-0.2-0.2c-0.7-0.5-1-0.8-1.7-1.4c-0.4-0.4-1.7-1.8-1.7-1.8
			c-1.1-1.5-0.9-2.2-0.8-2.9c0.1-0.7,0.8-1.3,0.9-1.4l1.2-1.2c0.3-0.3,0.5-0.8,0.2-1.2h0c-1.6-2.1-2.6-3.6-3.2-4
			c-0.1-0.1-0.4,0-0.5,0c-0.1,0-1.2,0.9-1.9,1.6c0,0-1.2,1.1-1.6,1.5c-0.5,0.5-0.8,0.9-0.9,1.6c-0.1,0.6,0.2,1.7,0.9,3
			c1.4,2.6,2.8,4.9,5.1,7.1c2.2,2.2,4.1,3.5,6.8,4.9c1.8,1,3.2,1.1,4,0.7c0.8-0.4,1.1-0.7,2-1.6l0.8-1c0.7-0.7,1-1.1,1.1-1.4
			c0.1-0.3,0-0.6-0.2-0.9C159,154.3,157.8,153.6,155.7,152z"/>
	</g>
</g>
</svg>
