<?xml version="1.0" encoding="utf-8"?>
<!-- Generator: Adobe Illustrator 18.0.0, SVG Export Plug-In . SVG Version: 6.00 Build 0)  -->
<!DOCTYPE svg PUBLIC "-//W3C//DTD SVG 1.1//EN" "http://www.w3.org/Graphics/SVG/1.1/DTD/svg11.dtd">
<svg version="1.1" xmlns="http://www.w3.org/2000/svg" xmlns:xlink="http://www.w3.org/1999/xlink" x="0px" y="0px"
	 viewBox="0 0 300 300" enable-background="new 0 0 300 300" xml:space="preserve">
<g id="Layer_1">
</g>
<g id="Layer_2">
	<rect fill="#59C0C7" stroke="#000000" stroke-miterlimit="10" width="300" height="300"/>
	<g>
		<path fill="#FFFFFF" d="M149.3,158.4c-0.3,0-0.5-0.1-0.7-0.3l-9.8-8.7v12.4c0,0.7,0.5,1.3,1.2,1.3h18.8c0.7,0,1.2-0.6,1.2-1.3
			v-12.4l-9.8,8.7C149.8,158.3,149.6,158.4,149.3,158.4z"/>
		<path fill="#FFFFFF" d="M159.1,146.8c-0.1,0-0.3-0.1-0.4-0.1h-18.8c-0.1,0-0.3,0-0.4,0.1l9.8,8.6L159.1,146.8z"/>
		<path fill="#FFFFFF" d="M149.4,133.5c-11.8,0-21.3,9.5-21.3,21.3c0,11.8,9.5,21.3,21.3,21.3c11.8,0,21.3-9.5,21.3-21.3
			C170.7,143,161.2,133.5,149.4,133.5z M162.3,161.8c0,2.1-1.6,3.9-3.5,3.9h-18.8c-1.9,0-3.5-1.7-3.5-3.9V148c0-2.1,1.6-3.9,3.5-3.9
			h18.8c1.9,0,3.5,1.7,3.5,3.9V161.8z"/>
	</g>
</g>
</svg>
