<?xml version="1.0" encoding="utf-8"?>
<!-- Generator: Adobe Illustrator 18.0.0, SVG Export Plug-In . SVG Version: 6.00 Build 0)  -->
<!DOCTYPE svg PUBLIC "-//W3C//DTD SVG 1.1//EN" "http://www.w3.org/Graphics/SVG/1.1/DTD/svg11.dtd">
<svg version="1.1" xmlns="http://www.w3.org/2000/svg" xmlns:xlink="http://www.w3.org/1999/xlink" x="0px" y="0px"
	 viewBox="0 0 300 300" enable-background="new 0 0 300 300" xml:space="preserve">
<g id="Layer_1">
</g>
<g id="Layer_2">
	<rect fill="#59C0C7" stroke="#000000" stroke-miterlimit="10" width="300" height="300"/>
	<g>
		<path fill="#FFFFFF" d="M146.3,142.4c-4.9,1.3-8.6,5.5-9.1,10.6h5.5C142.9,148.4,144.7,144.8,146.3,142.4z"/>
		<path fill="#FFFFFF" d="M153.5,153c-0.4-4.8-2.7-8.5-4.1-10.2c-1.3,1.8-3.7,5.4-4.1,10.2H153.5z"/>
		<path fill="#FFFFFF" d="M137.1,155.8c0.6,5.1,4.3,9.3,9.1,10.6c-1.5-2.3-3.4-6-3.7-10.6H137.1z"/>
		<path fill="#FFFFFF" d="M161.7,153c-0.6-5.1-4.3-9.3-9.1-10.6c1.5,2.3,3.4,6,3.7,10.6H161.7z"/>
		<path fill="#FFFFFF" d="M145.3,155.8c0.4,4.8,2.7,8.5,4.1,10.2c1.4-1.8,3.7-5.4,4.1-10.2H145.3z"/>
		<path fill="#FFFFFF" d="M149.4,133.1c-11.7,0-21.2,9.5-21.2,21.3c0,11.7,9.5,21.3,21.2,21.3c11.7,0,21.3-9.5,21.3-21.3
			C170.7,142.7,161.1,133.1,149.4,133.1z M150,169.5c-0.2,0-0.4,0-0.6,0c-0.2,0-0.4,0-0.6,0c-8.1-0.3-14.5-6.9-14.5-15.1
			c0-8.1,6.4-14.8,14.5-15.1c0.2,0,0.4,0,0.6,0c0.2,0,0.4,0,0.6,0c8.1,0.3,14.5,6.9,14.5,15.1C164.5,162.5,158,169.2,150,169.5z"/>
		<path fill="#FFFFFF" d="M152.5,166.3c4.9-1.3,8.6-5.4,9.1-10.6h-5.5C155.9,160.4,154.1,164,152.5,166.3z"/>
	</g>
</g>
</svg>
