<?xml version="1.0" encoding="utf-8"?>
<!-- Generator: Adobe Illustrator 18.0.0, SVG Export Plug-In . SVG Version: 6.00 Build 0)  -->
<!DOCTYPE svg PUBLIC "-//W3C//DTD SVG 1.1//EN" "http://www.w3.org/Graphics/SVG/1.1/DTD/svg11.dtd">
<svg version="1.1" xmlns="http://www.w3.org/2000/svg" xmlns:xlink="http://www.w3.org/1999/xlink" x="0px" y="0px"
	 viewBox="0 0 300 300" enable-background="new 0 0 300 300" xml:space="preserve">
<g id="Layer_1">
</g>
<g id="Layer_2">
	<rect fill="#59C0C7" stroke="#000000" stroke-miterlimit="10" width="300" height="300"/>
	<g>
		<path fill="#FFFFFF" d="M149.2,133.9c-11.7,0-21.1,9.4-21.1,21.1c0,11.6,9.4,21.1,21.1,21.1c11.6,0,21.1-9.4,21.1-21.1
			C170.3,143.4,160.9,133.9,149.2,133.9z M149.4,167.2c-3.3,0-10.9-0.4-10.9-3.9c0-3,3.9-6,6.8-7.9c-2.1-1.4-3.1-2.8-3.1-5.5
			c0-4.2,3-7.2,7.2-7.2c4.2,0,7.2,3,7.2,7.2c0,2.7-0.9,4.2-3.1,5.5c3.4,2.3,6.7,4.9,6.7,7.9C160.3,166.8,152.7,167.2,149.4,167.2z"
			/>
		<path fill="#FFFFFF" d="M149.5,154.5c2.8,0,5.2-1.9,5.2-4.7c0-2.8-2.4-5.2-5.2-5.2c-2.8,0-5.2,2.4-5.2,5.2
			C144.3,152.6,146.7,154.5,149.5,154.5z"/>
		<path fill="#FFFFFF" d="M151.2,156.6c-0.6-0.3-1.2-0.4-1.7-0.4c-0.5,0-1.3,0.2-1.8,0.4c-2.4,0.9-5.3,3-6.6,5.1
			c-0.3,0.5-1.1,1.6,0.1,2.3c1.2,0.6,4.1,1.2,8.2,1.2c3.9,0,7-0.5,8.2-1.3c1.1-0.7,0.4-1.8,0.1-2.3
			C156.5,159.5,153.6,157.5,151.2,156.6z"/>
	</g>
</g>
</svg>
